#N canvas -1166 70 1100 783 12;
#X obj 204 101 random 12;
#X obj 204 53 loadbang;
#X obj 204 122 + 40;
#X obj 204 143 mtof;
#X obj 236 388 osc~;
#X obj 199 167 sig~;
#X obj 301 227 *~ 1.5;
#X obj 301 248 osc~;
#X floatatom 333 192 5 0 0 0 - - - 0;
#X obj 231 357 +~;
#X obj 292 281 *~ 20;
#X floatatom 353 248 5 0 0 0 - - - 0;
#X obj 335 134 / 500;
#X obj 334 75 loadbang;
#X obj 396 221 + 100;
#X obj 397 167 loadbang;
#X obj 319 562 *~;
#X obj 353 338 inlet;
#X msg 376 399 \$1 5;
#X obj 376 420 line~;
#X obj 321 617 outlet~;
#X obj 247 427 *~ 0.5;
#X obj 225 201 inlet~;
#X obj 493 57 r sampleStop;
#X obj 336 113 random 5000;
#X obj 397 200 random 5000;
#X connect 0 0 2 0;
#X connect 1 0 0 0;
#X connect 2 0 3 0;
#X connect 3 0 5 0;
#X connect 4 0 21 0;
#X connect 6 0 7 0;
#X connect 7 0 10 0;
#X connect 8 0 6 1;
#X connect 9 0 4 0;
#X connect 10 0 9 1;
#X connect 11 0 10 1;
#X connect 12 0 8 0;
#X connect 13 0 24 0;
#X connect 14 0 11 0;
#X connect 15 0 25 0;
#X connect 16 0 20 0;
#X connect 17 0 18 0;
#X connect 18 0 19 0;
#X connect 19 0 16 1;
#X connect 21 0 16 0;
#X connect 22 0 6 0;
#X connect 22 0 9 0;
#X connect 23 0 24 0;
#X connect 23 0 25 0;
#X connect 24 0 12 0;
#X connect 25 0 14 0;
